<?xml version="1.0" encoding="UTF-8"?>
<svg width="50px" height="60px" viewBox="0 0 50 60" version="1.1" xmlns="http://www.w3.org/2000/svg" xmlns:xlink="http://www.w3.org/1999/xlink">
    <!-- Generator: Sketch 53.2 (72643) - https://sketchapp.com -->
    <title>goalAchieved</title>
    <desc>Created with Sketch.</desc>
    <g id="Page-1" stroke="none" stroke-width="1" fill="none" fill-rule="evenodd">
        <g id="goalAchieved" fill="#58595B">
            <path d="M39.5981,18.1221 L20.6851,35.7741 C20.4931,35.9541 20.2481,36.0431 20.0031,36.0431 C19.7461,36.0431 19.4911,35.9451 19.2961,35.7501 L12.9921,29.4461 C12.6011,29.0561 12.6011,28.4231 12.9921,28.0321 C13.3821,27.6421 14.0151,27.6421 14.4061,28.0321 L20.0271,33.6521 L38.2341,16.6591 C38.6371,16.2841 39.2701,16.3051 39.6471,16.7081 C40.0241,17.1121 40.0021,17.7451 39.5981,18.1221 M49.0001,0.000100000001 L1.0871,0.000100000001 C0.5351,0.000100000001 0.0871,0.4471 0.0871,1.0001 L0.0871,19.3201 C0.0871,36.3951 9.4711,51.9381 24.5781,59.8851 C24.7231,59.9621 24.8831,60.0001 25.0431,60.0001 C25.2041,60.0001 25.3631,59.9621 25.5091,59.8851 C40.6161,51.9351 50.0001,36.3921 50.0001,19.3201 L50.0001,1.0001 C50.0001,0.4471 49.5521,0.000100000001 49.0001,0.000100000001" id="Fill-663"></path>
        </g>
    </g>
</svg>