<svg width="210" height="280" viewBox="0 0 210 280" fill="none" xmlns="http://www.w3.org/2000/svg">
<path d="M0.486128 5.44463C0.224939 2.51932 2.52937 0 5.46632 0H204.534C207.471 0 209.775 2.51935 209.514 5.44466L185.407 275.445C185.176 278.024 183.016 280 180.427 280H29.5735C26.9844 280 24.8235 278.024 24.5933 275.445L0.486128 5.44463Z" fill="#ECEFF1"/>
<path d="M184.549 90.5457C184.306 90.2567 183.864 90.2477 183.61 90.5267V90.5267C170.811 104.343 161.828 105.582 149.867 94.3084C147.726 92.2906 144.342 92.2927 142.184 94.2918C130.766 104.867 120.762 104.991 109.529 94.694C107.361 92.7062 103.977 92.7056 101.819 94.7045C90.401 105.28 80.3976 105.404 69.1645 95.1074C66.996 93.1197 63.615 93.1227 61.435 95.0978C48.8867 106.466 38.0459 104.133 25.4011 90.5006C25.1376 90.2166 24.7023 90.1564 24.3784 90.369V90.369C24.144 90.5228 24.0088 90.7862 24.0234 91.0661C28.0371 167.931 38.9455 264 68.3803 264H140.578C170.097 264 180.987 168.241 184.981 91.4414C184.993 91.2086 184.917 90.9824 184.767 90.804L184.549 90.5457Z" fill="#2F92E3"/>
<rect x="75" y="200" width="32" height="32" rx="5" fill="white"/>
<rect x="132.221" y="132" width="32" height="32" rx="5" transform="rotate(18.4317 132.221 132)" fill="white"/>
</svg>
