<svg width="210" height="280" viewBox="0 0 210 280" fill="none" xmlns="http://www.w3.org/2000/svg">
<path d="M0.702522 5.62017C0.329488 2.63591 2.65642 0 5.66391 0H204.346C207.35 0 209.676 2.63003 209.309 5.61145L176.041 275.611C175.732 278.117 173.603 280 171.078 280H39.4139C36.8923 280 34.7653 278.122 34.4525 275.62L0.702522 5.62017Z" fill="#ECEFF1"/>
<path d="M184.546 56.6478C184.32 56.3269 183.848 56.3177 183.61 56.6296V56.6296C170.932 72.9886 161.999 74.5974 150.206 61.5295C147.996 59.0808 144.074 59.0769 141.842 61.5054C130.683 73.6456 120.857 73.7951 109.877 61.9887C107.631 59.5737 103.71 59.5704 101.478 61.9986C90.3188 74.1397 80.4926 74.2896 69.5123 62.4829C67.2662 60.0679 63.3461 60.0693 61.0845 62.4697C48.6941 75.6205 37.9449 72.7468 25.4306 56.6365C25.1629 56.2918 24.6597 56.2203 24.3164 56.4897V56.4897C24.1178 56.6455 24.0064 56.8846 24.0174 57.1368C28.0262 149.044 38.9308 264 68.3803 264H140.578C170.109 264 180.996 149.433 184.986 57.6062C184.995 57.4017 184.936 57.2022 184.818 57.0348L184.546 56.6478Z" fill="#2F92E3"/>
</svg>
